<svg width="29" height="29" viewBox="0 0 29 29" fill="none" xmlns="http://www.w3.org/2000/svg">
<path d="M22.9961 13.6504C20.6538 13.6504 18.748 15.5562 18.748 17.8984C18.748 20.2407 20.6538 22.1465 22.9961 22.1465C25.3384 22.1465 27.2441 20.2407 27.2441 17.8984C27.2441 15.5562 25.3384 13.6504 22.9961 13.6504Z" fill="black"/>
<path d="M27.1451 22.1465C26.0724 23.1943 24.6102 23.8457 22.9961 23.8457C21.3819 23.8457 19.9198 23.1943 18.8471 22.1465C17.7408 23.2272 17.0488 24.7297 17.0488 26.3945V28.1504C17.0488 28.62 17.4288 29 17.8984 29H28.1504C28.62 29 29 28.62 29 28.1504V26.3945C29 24.7297 28.2514 23.2272 27.1451 22.1465Z" fill="black"/>
<path d="M6.00391 0C3.66165 0 1.75586 1.96243 1.75586 4.30469C1.75586 6.64695 3.66165 8.55273 6.00391 8.55273C8.34617 8.55273 10.252 6.64695 10.252 4.30469C10.252 1.96243 8.34617 0 6.00391 0Z" fill="black"/>
<path d="M10.1529 8.55273C9.08017 9.60053 7.61805 10.252 6.00391 10.252C4.38976 10.252 2.92758 9.60053 1.85492 8.55273C0.748619 9.63344 0 11.136 0 12.8008V14.5C0 14.9696 0.380002 15.3496 0.849609 15.3496H11.1016C11.5712 15.3496 11.9512 14.9696 11.9512 14.5V12.8008C11.9512 11.136 11.2592 9.63344 10.1529 8.55273Z" fill="black"/>
<path d="M14.5004 3.45508C13.6156 3.45508 12.7474 3.58411 11.8995 3.78943C11.9147 3.96201 11.9516 4.12825 11.9516 4.30469C11.9516 4.73238 11.9016 5.14784 11.8154 5.55016C12.6808 5.29108 13.5834 5.1543 14.5004 5.1543C18.7874 5.1543 22.4003 8.05951 23.4968 12.0018C24.1459 12.057 24.772 12.1914 25.3453 12.4391C24.3762 7.33162 19.8855 3.45508 14.5004 3.45508Z" fill="black"/>
<path d="M14.4996 23.8457C10.2308 23.8457 6.62939 20.9655 5.51617 17.0488H3.76343C4.91867 21.9122 9.2881 25.5449 14.4996 25.5449C14.8153 25.5449 15.1273 25.5235 15.4385 25.4974C15.51 24.8911 15.6408 24.3015 15.8516 23.7372C15.4064 23.8016 14.9569 23.8457 14.4996 23.8457Z" fill="black"/>
</svg>
