<svg width="28" height="28" viewBox="0 0 28 28" fill="none" xmlns="http://www.w3.org/2000/svg">
<path d="M27.1797 0H0.820312C0.367281 0 0 0.367281 0 0.820312V2.73438C0 3.18741 0.367281 3.55469 0.820312 3.55469H27.1797C27.6327 3.55469 28 3.18741 28 2.73438V0.820312C28 0.367281 27.6327 0 27.1797 0Z" fill="black"/>
<path d="M9.88745 18.4077C11.4378 18.4077 12.7436 17.341 13.1097 15.903H9.88745C9.43441 15.903 9.06713 15.5357 9.06713 15.0827V11.8604C7.62918 12.2266 6.5625 13.5324 6.5625 15.0827C6.5625 16.9162 8.05405 18.4077 9.88745 18.4077Z" fill="black"/>
<path d="M10.7078 11.8604V14.2624H13.1097C12.8104 13.0869 11.8832 12.1598 10.7078 11.8604V11.8604Z" fill="black"/>
<path d="M1.64062 22.2578C1.64062 22.7108 2.00791 23.0781 2.46094 23.0781H13.1797V26.3594H12.3594C11.9063 26.3594 11.5391 26.7267 11.5391 27.1797C11.5391 27.6327 11.9063 28 12.3594 28H15.6406C16.0937 28 16.4609 27.6327 16.4609 27.1797C16.4609 26.7267 16.0937 26.3594 15.6406 26.3594H14.8203V23.0781H25.5391C25.9921 23.0781 26.3594 22.7108 26.3594 22.2578V5.19531H1.64062V22.2578ZM22.2578 19.1843H17.314C16.8609 19.1843 16.4936 18.817 16.4936 18.364C16.4936 17.911 16.8609 17.5437 17.314 17.5437H22.2578C22.7108 17.5437 23.0781 17.911 23.0781 18.364C23.0781 18.817 22.7108 19.1843 22.2578 19.1843ZM22.2578 15.9031H17.314C16.8609 15.9031 16.4936 15.5358 16.4936 15.0828C16.4936 14.6297 16.8609 14.2624 17.314 14.2624H22.2578C22.7108 14.2624 23.0781 14.6297 23.0781 15.0828C23.0781 15.5358 22.7108 15.9031 22.2578 15.9031ZM23.0781 11.8015C23.0781 12.2545 22.7108 12.6218 22.2578 12.6218H17.314C16.8609 12.6218 16.4936 12.2545 16.4936 11.8015C16.4936 11.3485 16.8609 10.9812 17.314 10.9812H22.2578C22.7108 10.9812 23.0781 11.3485 23.0781 11.8015ZM8.77182 6.83594H19.2281C19.6812 6.83594 20.0484 7.20322 20.0484 7.65625C20.0484 8.10928 19.6812 8.47656 19.2281 8.47656H8.77182C8.31879 8.47656 7.95151 8.10928 7.95151 7.65625C7.95151 7.20322 8.31879 6.83594 8.77182 6.83594V6.83594ZM9.88745 10.1172C12.6254 10.1172 14.853 12.3447 14.853 15.0828C14.853 17.8208 12.6255 20.0484 9.88745 20.0484C7.14941 20.0484 4.92188 17.8209 4.92188 15.0828C4.92188 12.3447 7.14941 10.1172 9.88745 10.1172Z" fill="black"/>
</svg>
